<?xml version="1.0" encoding="UTF-8" standalone="no"?>
<!DOCTYPE svg PUBLIC "-//W3C//DTD SVG 1.1//EN"
 "http://www.w3.org/Graphics/SVG/1.1/DTD/svg11.dtd">
<!-- Generated by graphviz version 2.43.0 (0)
 -->
<!-- Title: %3 Pages: 1 -->
<svg width="718pt" height="260pt"
 viewBox="0.00 0.00 717.59 260.00" xmlns="http://www.w3.org/2000/svg" xmlns:xlink="http://www.w3.org/1999/xlink">
<g id="graph0" class="graph" transform="scale(1 1) rotate(0) translate(4 256)">
<title>%3</title>
<polygon fill="white" stroke="transparent" points="-4,4 -4,-256 713.59,-256 713.59,4 -4,4"/>
<!-- [root] azurerm_resource_group.rg (expand) -->
<g id="node1" class="node">
<title>[root] azurerm_resource_group.rg (expand)</title>
<polygon fill="none" stroke="black" points="462.29,-108 247.29,-108 247.29,-72 462.29,-72 462.29,-108"/>
<text text-anchor="middle" x="354.79" y="-86.3" font-family="Times,serif" font-size="14.00">azurerm_resource_group.rg</text>
</g>
<!-- [root] provider[&quot;registry.terraform.io/hashicorp/azurerm&quot;] -->
<g id="node2" class="node">
<title>[root] provider[&quot;registry.terraform.io/hashicorp/azurerm&quot;]</title>
<polygon fill="none" stroke="black" points="354.79,-36 0.21,-18 354.79,0 709.38,-18 354.79,-36"/>
<text text-anchor="middle" x="354.79" y="-14.3" font-family="Times,serif" font-size="14.00">provider[&quot;registry.terraform.io/hashicorp/azurerm&quot;]</text>
</g>
<!-- [root] azurerm_resource_group.rg (expand)&#45;&gt;[root] provider[&quot;registry.terraform.io/hashicorp/azurerm&quot;] -->
<g id="edge1" class="edge">
<title>[root] azurerm_resource_group.rg (expand)&#45;&gt;[root] provider[&quot;registry.terraform.io/hashicorp/azurerm&quot;]</title>
<path fill="none" stroke="black" d="M354.79,-71.7C354.79,-63.98 354.79,-54.71 354.79,-46.11"/>
<polygon fill="black" stroke="black" points="358.29,-46.1 354.79,-36.1 351.29,-46.1 358.29,-46.1"/>
</g>
<!-- [root] provider[&quot;registry.terraform.io/hashicorp/azurerm&quot;] (close) -->
<g id="node3" class="node">
<title>[root] provider[&quot;registry.terraform.io/hashicorp/azurerm&quot;] (close)</title>
<ellipse fill="none" stroke="black" cx="354.79" cy="-162" rx="313.04" ry="18"/>
<text text-anchor="middle" x="354.79" y="-158.3" font-family="Times,serif" font-size="14.00">[root] provider[&quot;registry.terraform.io/hashicorp/azurerm&quot;] (close)</text>
</g>
<!-- [root] provider[&quot;registry.terraform.io/hashicorp/azurerm&quot;] (close)&#45;&gt;[root] azurerm_resource_group.rg (expand) -->
<g id="edge2" class="edge">
<title>[root] provider[&quot;registry.terraform.io/hashicorp/azurerm&quot;] (close)&#45;&gt;[root] azurerm_resource_group.rg (expand)</title>
<path fill="none" stroke="black" d="M354.79,-143.7C354.79,-135.98 354.79,-126.71 354.79,-118.11"/>
<polygon fill="black" stroke="black" points="358.29,-118.1 354.79,-108.1 351.29,-118.1 358.29,-118.1"/>
</g>
<!-- [root] root -->
<g id="node4" class="node">
<title>[root] root</title>
<ellipse fill="none" stroke="black" cx="354.79" cy="-234" rx="58.49" ry="18"/>
<text text-anchor="middle" x="354.79" y="-230.3" font-family="Times,serif" font-size="14.00">[root] root</text>
</g>
<!-- [root] root&#45;&gt;[root] provider[&quot;registry.terraform.io/hashicorp/azurerm&quot;] (close) -->
<g id="edge3" class="edge">
<title>[root] root&#45;&gt;[root] provider[&quot;registry.terraform.io/hashicorp/azurerm&quot;] (close)</title>
<path fill="none" stroke="black" d="M354.79,-215.7C354.79,-207.98 354.79,-198.71 354.79,-190.11"/>
<polygon fill="black" stroke="black" points="358.29,-190.1 354.79,-180.1 351.29,-190.1 358.29,-190.1"/>
</g>
</g>
</svg>
