<?xml version="1.0" encoding="UTF-8" standalone="no"?>
<!DOCTYPE svg PUBLIC "-//W3C//DTD SVG 1.1//EN"
 "http://www.w3.org/Graphics/SVG/1.1/DTD/svg11.dtd">
<!-- Generated by graphviz version 2.43.0 (0)
 -->
<!-- Title: %3 Pages: 1 -->
<svg width="1263pt" height="548pt"
 viewBox="0.00 0.00 1263.06 548.00" xmlns="http://www.w3.org/2000/svg" xmlns:xlink="http://www.w3.org/1999/xlink">
<g id="graph0" class="graph" transform="scale(1 1) rotate(0) translate(4 544)">
<title>%3</title>
<polygon fill="white" stroke="transparent" points="-4,4 -4,-544 1259.06,-544 1259.06,4 -4,4"/>
<!-- [root] azurerm_network_interface.example (expand) -->
<g id="node1" class="node">
<title>[root] azurerm_network_interface.example (expand)</title>
<polygon fill="none" stroke="black" points="800.77,-324 523.77,-324 523.77,-288 800.77,-288 800.77,-324"/>
<text text-anchor="middle" x="662.27" y="-302.3" font-family="Times,serif" font-size="14.00">azurerm_network_interface.example</text>
</g>
<!-- [root] azurerm_public_ip.example (expand) -->
<g id="node4" class="node">
<title>[root] azurerm_public_ip.example (expand)</title>
<polygon fill="none" stroke="black" points="962.27,-252 750.27,-252 750.27,-216 962.27,-216 962.27,-252"/>
<text text-anchor="middle" x="856.27" y="-230.3" font-family="Times,serif" font-size="14.00">azurerm_public_ip.example</text>
</g>
<!-- [root] azurerm_network_interface.example (expand)&#45;&gt;[root] azurerm_public_ip.example (expand) -->
<g id="edge1" class="edge">
<title>[root] azurerm_network_interface.example (expand)&#45;&gt;[root] azurerm_public_ip.example (expand)</title>
<path fill="none" stroke="black" d="M709.73,-287.88C736.84,-278.09 771.01,-265.77 799.53,-255.47"/>
<polygon fill="black" stroke="black" points="800.75,-258.75 808.97,-252.07 798.37,-252.17 800.75,-258.75"/>
</g>
<!-- [root] azurerm_subnet.internal (expand) -->
<g id="node7" class="node">
<title>[root] azurerm_subnet.internal (expand)</title>
<polygon fill="none" stroke="black" points="731.77,-252 538.77,-252 538.77,-216 731.77,-216 731.77,-252"/>
<text text-anchor="middle" x="635.27" y="-230.3" font-family="Times,serif" font-size="14.00">azurerm_subnet.internal</text>
</g>
<!-- [root] azurerm_network_interface.example (expand)&#45;&gt;[root] azurerm_subnet.internal (expand) -->
<g id="edge2" class="edge">
<title>[root] azurerm_network_interface.example (expand)&#45;&gt;[root] azurerm_subnet.internal (expand)</title>
<path fill="none" stroke="black" d="M655.6,-287.7C652.56,-279.81 648.89,-270.3 645.51,-261.55"/>
<polygon fill="black" stroke="black" points="648.73,-260.17 641.87,-252.1 642.2,-262.69 648.73,-260.17"/>
</g>
<!-- [root] azurerm_network_interface_security_group_association.example (expand) -->
<g id="node2" class="node">
<title>[root] azurerm_network_interface_security_group_association.example (expand)</title>
<polygon fill="none" stroke="black" points="565.27,-396 89.27,-396 89.27,-360 565.27,-360 565.27,-396"/>
<text text-anchor="middle" x="327.27" y="-374.3" font-family="Times,serif" font-size="14.00">azurerm_network_interface_security_group_association.example</text>
</g>
<!-- [root] azurerm_network_interface_security_group_association.example (expand)&#45;&gt;[root] azurerm_network_interface.example (expand) -->
<g id="edge3" class="edge">
<title>[root] azurerm_network_interface_security_group_association.example (expand)&#45;&gt;[root] azurerm_network_interface.example (expand)</title>
<path fill="none" stroke="black" d="M408.79,-359.97C457.73,-349.74 520.09,-336.71 570.71,-326.13"/>
<polygon fill="black" stroke="black" points="571.6,-329.52 580.68,-324.05 570.17,-322.67 571.6,-329.52"/>
</g>
<!-- [root] azurerm_network_security_group.example (expand) -->
<g id="node3" class="node">
<title>[root] azurerm_network_security_group.example (expand)</title>
<polygon fill="none" stroke="black" points="487.27,-180 167.27,-180 167.27,-144 487.27,-144 487.27,-180"/>
<text text-anchor="middle" x="327.27" y="-158.3" font-family="Times,serif" font-size="14.00">azurerm_network_security_group.example</text>
</g>
<!-- [root] azurerm_network_interface_security_group_association.example (expand)&#45;&gt;[root] azurerm_network_security_group.example (expand) -->
<g id="edge4" class="edge">
<title>[root] azurerm_network_interface_security_group_association.example (expand)&#45;&gt;[root] azurerm_network_security_group.example (expand)</title>
<path fill="none" stroke="black" d="M327.27,-359.85C327.27,-322.83 327.27,-235.18 327.27,-190.39"/>
<polygon fill="black" stroke="black" points="330.77,-190.23 327.27,-180.23 323.77,-190.23 330.77,-190.23"/>
</g>
<!-- [root] azurerm_resource_group.example (expand) -->
<g id="node5" class="node">
<title>[root] azurerm_resource_group.example (expand)</title>
<polygon fill="none" stroke="black" points="764.77,-108 505.77,-108 505.77,-72 764.77,-72 764.77,-108"/>
<text text-anchor="middle" x="635.27" y="-86.3" font-family="Times,serif" font-size="14.00">azurerm_resource_group.example</text>
</g>
<!-- [root] azurerm_network_security_group.example (expand)&#45;&gt;[root] azurerm_resource_group.example (expand) -->
<g id="edge5" class="edge">
<title>[root] azurerm_network_security_group.example (expand)&#45;&gt;[root] azurerm_resource_group.example (expand)</title>
<path fill="none" stroke="black" d="M402.22,-143.97C446.93,-133.8 503.83,-120.87 550.22,-110.33"/>
<polygon fill="black" stroke="black" points="551.28,-113.68 560.25,-108.05 549.72,-106.85 551.28,-113.68"/>
</g>
<!-- [root] azurerm_public_ip.example (expand)&#45;&gt;[root] azurerm_resource_group.example (expand) -->
<g id="edge6" class="edge">
<title>[root] azurerm_public_ip.example (expand)&#45;&gt;[root] azurerm_resource_group.example (expand)</title>
<path fill="none" stroke="black" d="M844.23,-215.7C829.68,-195.94 803.5,-163.79 774.27,-144 754.16,-130.38 730.06,-119.61 707.62,-111.44"/>
<polygon fill="black" stroke="black" points="708.71,-108.11 698.12,-108.1 706.39,-114.72 708.71,-108.11"/>
</g>
<!-- [root] provider[&quot;registry.terraform.io/hashicorp/azurerm&quot;] -->
<g id="node10" class="node">
<title>[root] provider[&quot;registry.terraform.io/hashicorp/azurerm&quot;]</title>
<polygon fill="none" stroke="black" points="635.27,-36 280.68,-18 635.27,0 989.86,-18 635.27,-36"/>
<text text-anchor="middle" x="635.27" y="-14.3" font-family="Times,serif" font-size="14.00">provider[&quot;registry.terraform.io/hashicorp/azurerm&quot;]</text>
</g>
<!-- [root] azurerm_resource_group.example (expand)&#45;&gt;[root] provider[&quot;registry.terraform.io/hashicorp/azurerm&quot;] -->
<g id="edge7" class="edge">
<title>[root] azurerm_resource_group.example (expand)&#45;&gt;[root] provider[&quot;registry.terraform.io/hashicorp/azurerm&quot;]</title>
<path fill="none" stroke="black" d="M635.27,-71.7C635.27,-63.98 635.27,-54.71 635.27,-46.11"/>
<polygon fill="black" stroke="black" points="638.77,-46.1 635.27,-36.1 631.77,-46.1 638.77,-46.1"/>
</g>
<!-- [root] azurerm_subnet.external (expand) -->
<g id="node6" class="node">
<title>[root] azurerm_subnet.external (expand)</title>
<polygon fill="none" stroke="black" points="229.27,-252 33.27,-252 33.27,-216 229.27,-216 229.27,-252"/>
<text text-anchor="middle" x="131.27" y="-230.3" font-family="Times,serif" font-size="14.00">azurerm_subnet.external</text>
</g>
<!-- [root] azurerm_virtual_network.example (expand) -->
<g id="node9" class="node">
<title>[root] azurerm_virtual_network.example (expand)</title>
<polygon fill="none" stroke="black" points="765.27,-180 505.27,-180 505.27,-144 765.27,-144 765.27,-180"/>
<text text-anchor="middle" x="635.27" y="-158.3" font-family="Times,serif" font-size="14.00">azurerm_virtual_network.example</text>
</g>
<!-- [root] azurerm_subnet.external (expand)&#45;&gt;[root] azurerm_virtual_network.example (expand) -->
<g id="edge8" class="edge">
<title>[root] azurerm_subnet.external (expand)&#45;&gt;[root] azurerm_virtual_network.example (expand)</title>
<path fill="none" stroke="black" d="M229.35,-219.38C307.16,-208.57 416.72,-193.35 502.41,-181.45"/>
<polygon fill="black" stroke="black" points="503.05,-184.9 512.47,-180.06 502.09,-177.96 503.05,-184.9"/>
</g>
<!-- [root] azurerm_subnet.internal (expand)&#45;&gt;[root] azurerm_virtual_network.example (expand) -->
<g id="edge9" class="edge">
<title>[root] azurerm_subnet.internal (expand)&#45;&gt;[root] azurerm_virtual_network.example (expand)</title>
<path fill="none" stroke="black" d="M635.27,-215.7C635.27,-207.98 635.27,-198.71 635.27,-190.11"/>
<polygon fill="black" stroke="black" points="638.77,-190.1 635.27,-180.1 631.77,-190.1 638.77,-190.1"/>
</g>
<!-- [root] azurerm_virtual_machine.main (expand) -->
<g id="node8" class="node">
<title>[root] azurerm_virtual_machine.main (expand)</title>
<polygon fill="none" stroke="black" points="820.77,-396 583.77,-396 583.77,-360 820.77,-360 820.77,-396"/>
<text text-anchor="middle" x="702.27" y="-374.3" font-family="Times,serif" font-size="14.00">azurerm_virtual_machine.main</text>
</g>
<!-- [root] azurerm_virtual_machine.main (expand)&#45;&gt;[root] azurerm_network_interface.example (expand) -->
<g id="edge10" class="edge">
<title>[root] azurerm_virtual_machine.main (expand)&#45;&gt;[root] azurerm_network_interface.example (expand)</title>
<path fill="none" stroke="black" d="M692.38,-359.7C687.78,-351.64 682.21,-341.89 677.12,-332.98"/>
<polygon fill="black" stroke="black" points="680.05,-331.05 672.05,-324.1 673.97,-334.52 680.05,-331.05"/>
</g>
<!-- [root] azurerm_virtual_network.example (expand)&#45;&gt;[root] azurerm_resource_group.example (expand) -->
<g id="edge11" class="edge">
<title>[root] azurerm_virtual_network.example (expand)&#45;&gt;[root] azurerm_resource_group.example (expand)</title>
<path fill="none" stroke="black" d="M635.27,-143.7C635.27,-135.98 635.27,-126.71 635.27,-118.11"/>
<polygon fill="black" stroke="black" points="638.77,-118.1 635.27,-108.1 631.77,-118.1 638.77,-118.1"/>
</g>
<!-- [root] output.my_public_ip (expand) -->
<g id="node11" class="node">
<title>[root] output.my_public_ip (expand)</title>
<ellipse fill="none" stroke="black" cx="1078.27" cy="-306" rx="176.57" ry="18"/>
<text text-anchor="middle" x="1078.27" y="-302.3" font-family="Times,serif" font-size="14.00">[root] output.my_public_ip (expand)</text>
</g>
<!-- [root] output.my_public_ip (expand)&#45;&gt;[root] azurerm_public_ip.example (expand) -->
<g id="edge12" class="edge">
<title>[root] output.my_public_ip (expand)&#45;&gt;[root] azurerm_public_ip.example (expand)</title>
<path fill="none" stroke="black" d="M1026.78,-288.76C994.96,-278.73 953.86,-265.77 919.99,-255.09"/>
<polygon fill="black" stroke="black" points="920.78,-251.67 910.19,-252 918.67,-258.35 920.78,-251.67"/>
</g>
<!-- [root] output.my_public_ip_details (expand) -->
<g id="node12" class="node">
<title>[root] output.my_public_ip_details (expand)</title>
<ellipse fill="none" stroke="black" cx="856.27" cy="-450" rx="211.76" ry="18"/>
<text text-anchor="middle" x="856.27" y="-446.3" font-family="Times,serif" font-size="14.00">[root] output.my_public_ip_details (expand)</text>
</g>
<!-- [root] output.my_public_ip_details (expand)&#45;&gt;[root] azurerm_public_ip.example (expand) -->
<g id="edge13" class="edge">
<title>[root] output.my_public_ip_details (expand)&#45;&gt;[root] azurerm_public_ip.example (expand)</title>
<path fill="none" stroke="black" d="M856.27,-431.85C856.27,-394.83 856.27,-307.18 856.27,-262.39"/>
<polygon fill="black" stroke="black" points="859.77,-262.23 856.27,-252.23 852.77,-262.23 859.77,-262.23"/>
</g>
<!-- [root] provider[&quot;registry.terraform.io/hashicorp/azurerm&quot;] (close) -->
<g id="node13" class="node">
<title>[root] provider[&quot;registry.terraform.io/hashicorp/azurerm&quot;] (close)</title>
<ellipse fill="none" stroke="black" cx="313.27" cy="-450" rx="313.04" ry="18"/>
<text text-anchor="middle" x="313.27" y="-446.3" font-family="Times,serif" font-size="14.00">[root] provider[&quot;registry.terraform.io/hashicorp/azurerm&quot;] (close)</text>
</g>
<!-- [root] provider[&quot;registry.terraform.io/hashicorp/azurerm&quot;] (close)&#45;&gt;[root] azurerm_network_interface_security_group_association.example (expand) -->
<g id="edge14" class="edge">
<title>[root] provider[&quot;registry.terraform.io/hashicorp/azurerm&quot;] (close)&#45;&gt;[root] azurerm_network_interface_security_group_association.example (expand)</title>
<path fill="none" stroke="black" d="M316.73,-431.7C318.28,-423.98 320.13,-414.71 321.85,-406.11"/>
<polygon fill="black" stroke="black" points="325.32,-406.6 323.85,-396.1 318.46,-405.22 325.32,-406.6"/>
</g>
<!-- [root] provider[&quot;registry.terraform.io/hashicorp/azurerm&quot;] (close)&#45;&gt;[root] azurerm_subnet.external (expand) -->
<g id="edge15" class="edge">
<title>[root] provider[&quot;registry.terraform.io/hashicorp/azurerm&quot;] (close)&#45;&gt;[root] azurerm_subnet.external (expand)</title>
<path fill="none" stroke="black" d="M182.11,-433.61C136.89,-425.4 94.08,-413.31 80.27,-396 47.98,-355.54 84.48,-294.32 110.25,-260.21"/>
<polygon fill="black" stroke="black" points="113.14,-262.19 116.52,-252.15 107.62,-257.9 113.14,-262.19"/>
</g>
<!-- [root] provider[&quot;registry.terraform.io/hashicorp/azurerm&quot;] (close)&#45;&gt;[root] azurerm_virtual_machine.main (expand) -->
<g id="edge16" class="edge">
<title>[root] provider[&quot;registry.terraform.io/hashicorp/azurerm&quot;] (close)&#45;&gt;[root] azurerm_virtual_machine.main (expand)</title>
<path fill="none" stroke="black" d="M403.98,-432.68C461.94,-422.25 537.27,-408.69 597.73,-397.81"/>
<polygon fill="black" stroke="black" points="598.46,-401.24 607.69,-396.02 597.22,-394.35 598.46,-401.24"/>
</g>
<!-- [root] root -->
<g id="node14" class="node">
<title>[root] root</title>
<ellipse fill="none" stroke="black" cx="856.27" cy="-522" rx="58.49" ry="18"/>
<text text-anchor="middle" x="856.27" y="-518.3" font-family="Times,serif" font-size="14.00">[root] root</text>
</g>
<!-- [root] root&#45;&gt;[root] output.my_public_ip (expand) -->
<g id="edge17" class="edge">
<title>[root] root&#45;&gt;[root] output.my_public_ip (expand)</title>
<path fill="none" stroke="black" d="M910.93,-515.53C969.51,-508.41 1056.85,-493.73 1077.27,-468 1107.51,-429.9 1097.1,-369.22 1087.34,-334.25"/>
<polygon fill="black" stroke="black" points="1090.58,-332.86 1084.37,-324.27 1083.87,-334.86 1090.58,-332.86"/>
</g>
<!-- [root] root&#45;&gt;[root] output.my_public_ip_details (expand) -->
<g id="edge18" class="edge">
<title>[root] root&#45;&gt;[root] output.my_public_ip_details (expand)</title>
<path fill="none" stroke="black" d="M856.27,-503.7C856.27,-495.98 856.27,-486.71 856.27,-478.11"/>
<polygon fill="black" stroke="black" points="859.77,-478.1 856.27,-468.1 852.77,-478.1 859.77,-478.1"/>
</g>
<!-- [root] root&#45;&gt;[root] provider[&quot;registry.terraform.io/hashicorp/azurerm&quot;] (close) -->
<g id="edge19" class="edge">
<title>[root] root&#45;&gt;[root] provider[&quot;registry.terraform.io/hashicorp/azurerm&quot;] (close)</title>
<path fill="none" stroke="black" d="M803.22,-514.16C720.76,-503.53 559.38,-482.73 444.37,-467.9"/>
<polygon fill="black" stroke="black" points="444.81,-464.43 434.44,-466.62 443.91,-471.37 444.81,-464.43"/>
</g>
</g>
</svg>
